<?xml version="1.0" encoding="utf-8"?>
<!-- Generator: Adobe Illustrator 22.1.0, SVG Export Plug-In . SVG Version: 6.00 Build 0)  -->
<svg version="1.1" id="Layer_1" xmlns="http://www.w3.org/2000/svg" xmlns:xlink="http://www.w3.org/1999/xlink" x="0px" y="0px"
	 viewBox="0 0 1204 1208" style="enable-background:new 0 0 1204 1208;" xml:space="preserve">
<style type="text/css">
	.st0{fill:#F8F8FC;}
	.st1{opacity:0.8;fill:#E9EEF8;}
	.st2{opacity:0.5;fill:#F2F4FA;}
	.st3{opacity:0.2;fill:#C8D3E3;}
</style>
<rect class="st0" width="1204" height="1208"/>
<path class="st1" d="M-289.9,952c-17.5-165.6,310.6-393.6,606.7-452.2c234.7-46.5,317.1,39.7,493.8-32.1
	C1130.5,337.6,1145.4-60.7,1255-53.4c156.9,10.4,460.9,848,84.6,1248.8C890.8,1673.5-258.9,1245.3-289.9,952z"/>
<path class="st2" d="M1031.5-47.3c-239.9,55.6-154,637.7-538.3,803.6c-203.7,87.9-402.5-0.3-510.4,147
	C-76.3,984-83,1101.2-46.9,1186.9c103.9,246.6,565.4,239.4,643.7,238.2c312.6-4.9,981.7-137.3,1064.7-611.6
	C1738.3,374.4,1268.2-102.2,1031.5-47.3z"/>
<path class="st3" d="M-164.9,672.4c41,88,148,283.8,342.5,338.6c346,97.4,657.7-338.5,688.7-382.9c136.4-196,105.6-295.1,223-485.8
	c150.5-244.4,449.7-512.2,653.5-462.9c373.8,90.3,684.5,1312.5,267.8,1946.5c-513.6,781.4-2037.8,525.3-2271.3-201.6
	C-300.9,1299.1-334.4,1061.7-164.9,672.4z"/>
</svg>
