<?xml version="1.0" encoding="utf-8"?>
<!-- Generator: Adobe Illustrator 22.1.0, SVG Export Plug-In . SVG Version: 6.00 Build 0)  -->
<svg version="1.1" id="Capa_1" xmlns="http://www.w3.org/2000/svg" xmlns:xlink="http://www.w3.org/1999/xlink" x="0px" y="0px"
	 viewBox="0 0 512 512" style="enable-background:new 0 0 512 512;" xml:space="preserve">
<style type="text/css">
	.st0{fill:#FFFFFF;}
</style>
<path class="st0" d="M473.8,229C473.8,229,473.8,229,473.8,229L289,44.2c-7.9-7.9-18.3-12.2-29.5-12.2c-11.1,0-21.6,4.3-29.5,12.2
	L45.3,228.9c-0.1,0.1-0.1,0.1-0.2,0.2C28.9,245.4,29,271.8,45.2,288c7.4,7.4,17.2,11.7,27.7,12.2c0.4,0,0.9,0.1,1.3,0.1h7.4v136
	c0,26.9,21.9,48.8,48.8,48.8h72.3c7.3,0,13.3-5.9,13.3-13.3V365.1c0-12.3,10-22.3,22.3-22.3h42.6c12.3,0,22.3,10,22.3,22.3v106.6
	c0,7.3,5.9,13.3,13.3,13.3h72.3c26.9,0,48.8-21.9,48.8-48.8v-136h6.8c11.1,0,21.6-4.3,29.5-12.2C490,271.7,490,245.3,473.8,229z"/>
</svg>
