<?xml version="1.0" encoding="utf-8"?>
<!-- Generator: Adobe Illustrator 22.1.0, SVG Export Plug-In . SVG Version: 6.00 Build 0)  -->
<svg version="1.1" id="Capa_1" xmlns="http://www.w3.org/2000/svg" xmlns:xlink="http://www.w3.org/1999/xlink" x="0px" y="0px"
	 viewBox="0 0 512 512" style="enable-background:new 0 0 512 512;" xml:space="preserve">
<style type="text/css">
	.st0{fill:#FFFFFF;}
</style>
<g>
	<path class="st0" d="M383.4,136.7c-8.4,0-16.9,0.3-25.3-0.1c-2.8-0.1-6.1-1.3-8.2-3c-11.7-9.8-23.6-19.2-37.2-26.1
		c-12.1-6.1-24.6-11-37.8-14.5c-19.6-5.2-39.4-5.7-59.3-4.2c-11.2,0.8-22.2,4.2-33.1,7c-14.7,3.7-28.1,10.5-40.8,18.6
		c-16.2,10.3-30.5,22.8-42.6,37.8c-9,11.2-16.5,23.2-22.5,36.2c-3.7,8.2-6.3,16.9-9.1,25.4c-5.4,16.8-7.3,34.2-6.5,51.8
		c0.7,15.1,2.7,30.1,7.3,44.5c6.6,20.7,16.4,39.6,30,56.7c10.6,13.4,22.9,24.9,36.8,34.7c12,8.4,25.1,14.8,38.7,20.1
		c25.8,10.1,52.5,11.7,79.6,9.4c12.9-1.1,25.6-4.4,37.9-9.1c11.5-4.4,22.7-9.2,32.8-16.2c9-6.2,17.3-13.3,26.1-19.7
		c1.9-1.4,4.5-2.7,6.8-2.7c17.8-0.2,35.6-0.1,53.4-0.1c1.2,0,2.5,0.6,3.7,0.9c-0.4,1.5-0.5,3.2-1.3,4.3
		c-12.6,17.2-26.9,32.7-43.9,45.7c-14,10.7-28.9,19.9-45,27.2c-13.9,6.3-28.2,11.3-42.9,14.5c-23.6,5-47.5,6.8-71.7,3.8
		c-14.8-1.8-29.3-4.5-43.3-9.1c-11.8-3.8-23.2-9-34.3-14.7c-10.9-5.7-21.6-12.1-31.5-19.4C85,425.2,71.6,412,60,397
		c-11.9-15.3-21.9-31.7-29.5-49.5c-5.7-13.4-9.9-27.1-13.2-41.3c-5.1-22-5.9-44.3-4.2-66.5c0.9-12.4,4-24.7,6.9-36.9
		c2.2-9.1,5.1-18.2,8.7-26.9c3.9-9.4,8.5-18.7,13.7-27.5c11.1-19,24.7-36,40.9-50.9c11.4-10.5,23.6-20.1,37.2-27.5
		c12.1-6.6,24.4-12.9,37.3-17.8c11.1-4.2,23-6.6,34.6-9.2c15.6-3.5,31.4-5,47.4-4.2c11.3,0.6,22.6,2.2,33.7,4.1
		c9,1.5,18.1,3.3,26.8,6.2c11.1,3.8,22.1,8.3,32.7,13.5c17.5,8.7,33.4,19.9,47.9,33c12.1,10.9,23,23,32.3,36.4
		c2,2.9,1.2,4.4-2.4,4.5C401.6,136.7,392.5,136.6,383.4,136.7C383.4,136.6,383.4,136.6,383.4,136.7z"/>
	<path class="st0" d="M503.7,259.6c-8.8,7.1-16.8,13.4-24.8,19.9c-23.5,18.8-47,37.7-70.5,56.5c-7.7,6.2-15.4,12.3-23.2,18.4
		c-0.8,0.6-2.2,1.1-3.1,0.9c-0.6-0.1-1.1-1.7-1.1-2.7c-0.1-6.2-0.1-12.3-0.1-18.5c0-14.6,0-29.2,0-43.7c0-5.4-0.5-5.9-6-5.9
		c-61.4,0-122.8,0-184.2,0c-5.9,0-6.3-0.4-6.3-6.4c0-12.3,0-24.6,0-36.9c0-5.2,0.6-5.8,5.7-5.8c61.4,0,122.8,0,184.2,0
		c6.4,0,6.6-0.2,6.6-6.5c0-19.7,0-39.3,0.1-59c0-1.8,0.8-3.7,1.2-5.5c1.6,0.8,3.3,1.4,4.6,2.5c16.4,13,32.8,26,49.1,39.1
		c21.8,17.4,43.5,34.8,65.2,52.2C501.9,258.7,502.6,259,503.7,259.6z"/>
</g>
</svg>
