<?xml version="1.0" encoding="utf-8"?>
<!-- Generator: Adobe Illustrator 22.1.0, SVG Export Plug-In . SVG Version: 6.00 Build 0)  -->
<svg version="1.1" id="Layer_1" xmlns="http://www.w3.org/2000/svg" xmlns:xlink="http://www.w3.org/1999/xlink" x="0px" y="0px"
	 viewBox="0 0 100 100" style="enable-background:new 0 0 100 100;" xml:space="preserve">
<style type="text/css">
	.st0{fill:#FFFFFF;}
</style>
<g>
	<path class="st0" d="M49.9,86c-18.6,0-34.1-13.4-36.6-32.1c-1.6-11.6,1.7-21.7,9.6-30.4c2.7-2.9,6.7-3.1,9-0.3
		c2,2.3,1.6,5.1-0.6,7.8c-2,2.4-4.1,4.9-5.4,7.7c-7.8,16.7,4.8,36,23.3,36.3c11.6,0.2,24.3-7.9,26.2-22.6c1-7.5-0.9-14.3-5.9-20.2
		c-1.1-1.3-2.1-2.9-2.6-4.5c-0.7-2.4,0.7-4.7,2.9-5.9c2.3-1.2,4.8-0.8,6.7,1.1c5.4,5.5,8.8,12.1,10,19.8c1.8,11.5-1.1,21.8-8.7,30.7
		C70.9,81.4,60.7,86,49.9,86z"/>
	<path class="st0" d="M57.3,26.8c0,2.6,0,5.1,0,7.7c-0.1,3.9-3.4,7.1-7.3,7.1c-3.9,0-7.3-3.1-7.3-7c-0.1-5.2-0.1-10.4,0-15.6
		C42.7,15,46,12,50,12c3.9,0,7.1,3,7.2,6.9C57.3,21.5,57.3,24.1,57.3,26.8z"/>
</g>
</svg>
