<?xml version="1.0" encoding="utf-8"?>
<!-- Generator: Adobe Illustrator 22.1.0, SVG Export Plug-In . SVG Version: 6.00 Build 0)  -->
<svg version="1.1" id="Capa_1" xmlns="http://www.w3.org/2000/svg" xmlns:xlink="http://www.w3.org/1999/xlink" x="0px" y="0px"
	 viewBox="0 0 512 512" style="enable-background:new 0 0 512 512;" xml:space="preserve">
<style type="text/css">
	.st0{fill:#FFFFFF;}
</style>
<g>
	<path class="st0" d="M256.2,471.1c-64.9,0-129.7,0-194.6,0c-13.8,0-16-2.1-16-15.6c0-93.4,0-186.8,0-280.1c0-13.4,2.2-15.7,16-15.7
		c129.7,0,259.5,0,389.2,0.1c14.2,0,16,2,16,16.5c0,92.8,0,185.5,0,278.3c0,14.7-1.8,16.5-17,16.5
		C385.3,471.1,320.7,471.1,256.2,471.1z"/>
	<path class="st0" d="M255.3,104.7c52.9,0,105.9,0,158.8,0c13.9,0,16.2,2.5,16.3,16.6c0,1.6,0,3.1,0,4.7
		c-0.1,12.7-2.8,15.6-15.4,15.6c-37.3,0.1-74.6,0.1-111.8,0.1c-68,0-136,0-204-0.1c-6.2,0-14.5,1.3-15.8-6.4
		c-1.5-8.6-0.4-17.9,1.6-26.5c0.5-2.2,8.7-3.8,13.4-3.8C150.6,104.7,202.9,104.8,255.3,104.7C255.3,104.8,255.3,104.7,255.3,104.7z"
		/>
	<path class="st0" d="M256.2,86.4c-40.4,0-80.8,0-121.3,0c-14.3,0-16.1-1.9-16.2-16.4c0-2.5,0.1-5,0-7.5c-0.2-8.5,3.6-13,12.4-12.7
		c1.3,0.1,2.5,0,3.8,0c80.8,0,161.7,0,242.5,0c14.2,0,16.1,2,16.2,16.4c0,1.9,0,3.8,0,5.6c-0.2,12.1-2.3,14.4-14.3,14.4
		c-37.9,0.1-75.8,0-113.7,0C262.5,86.3,259.3,86.3,256.2,86.4C256.2,86.4,256.2,86.4,256.2,86.4z"/>
</g>
</svg>
