<?xml version="1.0" encoding="utf-8"?>
<!-- Generator: Adobe Illustrator 22.1.0, SVG Export Plug-In . SVG Version: 6.00 Build 0)  -->
<svg version="1.1" id="Capa_1" xmlns="http://www.w3.org/2000/svg" xmlns:xlink="http://www.w3.org/1999/xlink" x="0px" y="0px"
	 viewBox="0 0 480 480" style="enable-background:new 0 0 480 480;" xml:space="preserve">
<style type="text/css">
	.st0{fill:#FFFFFF;}
</style>
<g>
	<g>
		<g>
			<path class="st0" d="M423.4,101c-0.4-1-1-1.8-1.7-2.6l-96-96c-0.7-0.7-1.6-1.3-2.6-1.7c-1-0.4-2-0.7-3.1-0.7H64c-4.4,0-8,3.6-8,8
				v464c0,4.4,3.6,8,8,8h352c4.4,0,8-3.6,8-8V104C424,103,423.8,101.9,423.4,101z M328,27.3L396.7,96H328V27.3z M408,464H72V16h240
				v88c0,4.4,3.6,8,8,8h88V464z"/>
			<path class="st0" d="M104,120h24v24c0,4.4,3.6,8,8,8h32c4.4,0,8-3.6,8-8v-24h24c4.4,0,8-3.6,8-8V80c0-4.4-3.6-8-8-8h-24V48
				c0-4.4-3.6-8-8-8h-32c-4.4,0-8,3.6-8,8v24h-24c-4.4,0-8,3.6-8,8v32C96,116.4,99.6,120,104,120z M112,88h24c4.4,0,8-3.6,8-8V56h16
				v24c0,4.4,3.6,8,8,8h24v16h-24c-4.4,0-8,3.6-8,8v24h-16v-24c0-4.4-3.6-8-8-8h-24V88z"/>
			<path class="st0" d="M96,240c0,4.4,3.6,8,8,8h272c4.4,0,8-3.6,8-8s-3.6-8-8-8H104C99.6,232,96,235.6,96,240z"/>
			<path class="st0" d="M376,280H104c-4.4,0-8,3.6-8,8s3.6,8,8,8h272c4.4,0,8-3.6,8-8S380.4,280,376,280z"/>
			<path class="st0" d="M376,328H104c-4.4,0-8,3.6-8,8s3.6,8,8,8h272c4.4,0,8-3.6,8-8S380.4,328,376,328z"/>
			<path class="st0" d="M376,376H104c-4.4,0-8,3.6-8,8s3.6,8,8,8h272c4.4,0,8-3.6,8-8S380.4,376,376,376z"/>
		</g>
	</g>
</g>
</svg>
