<?xml version="1.0" encoding="utf-8"?>
<!-- Generator: Adobe Illustrator 22.1.0, SVG Export Plug-In . SVG Version: 6.00 Build 0)  -->
<svg version="1.1" id="Capa_1" xmlns="http://www.w3.org/2000/svg" xmlns:xlink="http://www.w3.org/1999/xlink" x="0px" y="0px"
	 viewBox="0 0 512 512" style="enable-background:new 0 0 512 512;" xml:space="preserve">
<style type="text/css">
	.st0{fill:#FFFFFF;}
</style>
<g>
	<g>
		<path class="st0" d="M416,42.7H53.3C23.9,42.7,0,66.6,0,96v362.7C0,488.1,23.9,512,53.3,512H352c29.4,0,53.3-23.9,53.3-53.3V224
			H416c29.4,0,53.3-23.9,53.3-53.3V96C469.3,66.6,445.4,42.7,416,42.7z M448,170.7c0,17.7-14.3,32-32,32h-21.3
			c-5.9,0-10.7,4.8-10.7,10.7v245.3c0,17.7-14.3,32-32,32H53.3c-17.7,0-32-14.3-32-32V96c0-17.7,14.3-32,32-32H416
			c17.7,0,32,14.3,32,32V170.7z"/>
	</g>
</g>
<g>
	<g>
		<rect x="384" y="128" class="st0" width="21.3" height="85.3"/>
	</g>
</g>
<g>
	<g>
		<path class="st0" d="M98.3,0.1C97.5,0,96.8,0,96,0C72.4,0,53.3,19.1,53.3,42.7v10.7h21.3V42.7c0-5.9,2.4-11.5,6.7-15.5
			c4.3-4,10-6.1,15.8-5.8c11.7,1.3,20.5,11.3,20.2,23.1V160c0,11.8-9.6,21.3-21.3,21.3s-21.3-9.6-21.3-21.3V85.3H53.3V160
			c0,23.6,19.1,42.7,42.7,42.7s42.7-19.1,42.7-42.7V44.5C139.2,21.3,121.4,1.8,98.3,0.1z"/>
	</g>
</g>
<g>
	<g>
		<path class="st0" d="M298.7,117.3H160v21.3h138.7c5.9,0,10.7,4.8,10.7,10.7v181.3c0,5.9-4.8,10.7-10.7,10.7h-192
			c-5.9,0-10.7-4.8-10.7-10.7V224H74.7v106.7c0,17.7,14.3,32,32,32h192c17.7,0,32-14.3,32-32V149.3
			C330.7,131.7,316.3,117.3,298.7,117.3z"/>
	</g>
</g>
<g>
	<g>
		<path class="st0" d="M202.7,170.7c-23.6,0-42.7,19.1-42.7,42.7s19.1,42.7,42.7,42.7s42.7-19.1,42.7-42.7S226.2,170.7,202.7,170.7z
			 M202.7,234.7c-11.8,0-21.3-9.6-21.3-21.3s9.6-21.3,21.3-21.3c11.8,0,21.3,9.6,21.3,21.3C224,225.1,214.5,234.7,202.7,234.7z"/>
	</g>
</g>
<g>
	<g>
		<path class="st0" d="M213.3,245.3H192c-35.3,0-64,28.7-64,64h21.3c0-23.6,19.1-42.7,42.7-42.7h21.3c23.6,0,42.7,19.1,42.7,42.7
			h21.3C277.3,274,248.7,245.4,213.3,245.3z"/>
	</g>
</g>
<g>
	<g>
		<path class="st0" d="M480,0H192c-17.7,0-32,14.3-32,32v21.3h21.3V32c0-5.9,4.8-10.7,10.7-10.7h288c5.9,0,10.7,4.8,10.7,10.7v394.7
			c0,5.9-4.8,10.7-10.7,10.7h-85.3v21.3H480c17.7,0,32-14.3,32-32V32C512,14.3,497.7,0,480,0z"/>
	</g>
</g>
<g>
	<g>
		<rect x="394.7" y="384" class="st0" width="64" height="21.3"/>
	</g>
</g>
<g>
	<g>
		<rect x="394.7" y="330.7" class="st0" width="64" height="21.3"/>
	</g>
</g>
<g>
	<g>
		<rect x="394.7" y="277.3" class="st0" width="64" height="21.3"/>
	</g>
</g>
<g>
	<g>
		<rect x="42.7" y="448" class="st0" width="106.7" height="21.3"/>
	</g>
</g>
<g>
	<g>
		<rect x="42.7" y="405.3" class="st0" width="64" height="21.3"/>
	</g>
</g>
<g>
	<g>
		<rect x="170.7" y="448" class="st0" width="21.3" height="21.3"/>
	</g>
</g>
</svg>
