<?xml version="1.0" encoding="utf-8"?>
<!-- Generator: Adobe Illustrator 22.1.0, SVG Export Plug-In . SVG Version: 6.00 Build 0)  -->
<svg version="1.1" id="Capa_1" xmlns="http://www.w3.org/2000/svg" xmlns:xlink="http://www.w3.org/1999/xlink" x="0px" y="0px"
	 viewBox="0 0 512 512" style="enable-background:new 0 0 512 512;" xml:space="preserve">
<style type="text/css">
	.st0{fill:#FFFFFF;}
</style>
<path class="st0" d="M258.5,256.4c31.5,0,58.8-11.3,81-33.6c22.3-22.3,33.6-49.5,33.6-81c0-31.5-11.3-58.7-33.6-81
	c-22.3-22.3-49.5-33.6-81-33.6c-31.5,0-58.8,11.3-81,33.6s-33.6,49.5-33.6,81c0,31.5,11.3,58.8,33.6,81
	C199.8,245.1,227,256.4,258.5,256.4z"/>
<path class="st0" d="M459,393.1c-0.6-9.3-1.9-19.4-3.9-30.1c-1.9-10.8-4.4-20.9-7.4-30.2c-3.1-9.6-7.3-19.1-12.4-28.2
	c-5.4-9.4-11.7-17.7-18.7-24.4c-7.4-7.1-16.4-12.8-26.9-16.9c-10.4-4.1-22-6.2-34.4-6.2c-4.9,0-9.6,2-18.6,7.9
	c-5.6,3.6-12.1,7.9-19.4,12.5c-6.2,4-14.7,7.7-25.1,11.1c-10.2,3.3-20.5,5-30.7,5s-20.5-1.7-30.7-5c-10.4-3.4-18.9-7.1-25.1-11.1
	c-7.2-4.6-13.8-8.8-19.4-12.5c-9.1-5.9-13.8-7.9-18.6-7.9c-12.4,0-23.9,2.1-34.4,6.2c-10.5,4.1-19.5,9.8-26.9,16.9
	c-7.1,6.8-13.4,15-18.7,24.4c-5.2,9.1-9.3,18.6-12.4,28.2c-3,9.3-5.5,19.5-7.4,30.2c-1.9,10.7-3.2,20.8-3.9,30.1
	c-0.6,9.1-1,18.6-1,28.1c0,24.8,7.9,44.9,23.5,59.8c15.4,14.6,35.7,22.1,60.5,22.1h229.1c24.7,0,45.1-7.4,60.5-22.1
	c15.6-14.8,23.5-34.9,23.5-59.8C460,411.6,459.7,402.1,459,393.1z"/>
</svg>
