<?xml version="1.0" encoding="utf-8"?>
<!-- Generator: Adobe Illustrator 22.1.0, SVG Export Plug-In . SVG Version: 6.00 Build 0)  -->
<svg version="1.1" id="Capa_1" xmlns="http://www.w3.org/2000/svg" xmlns:xlink="http://www.w3.org/1999/xlink" x="0px" y="0px"
	 viewBox="0 0 512 512" style="enable-background:new 0 0 512 512;" xml:space="preserve">
<style type="text/css">
	.st0{fill:#667ACD;}
</style>
<g>
	<path class="st0" d="M221.6,338.9c42.6-62.7,84.1-123.9,125.7-185.1c14.4-21.2,28.7-42.6,43.2-63.7c11.1-16.3,21.1-18.2,37.2-7.6
		c8.7,5.7,17.2,11.5,25.7,17.4c16.6,11.6,18.6,21.6,7.1,38.5c-58.9,87-117.9,174-176.9,261c-7.2,10.6-14.4,21.3-21.6,31.9
		c-19.7,28.9-38.5,30.6-63.7,5.5c-31.8-31.7-63.6-63.5-95.3-95.3c-6.3-6.3-12.7-12.4-18.8-18.9c-11.5-12.3-11.4-22.5,0.4-34.8
		c8.2-8.6,16.6-17,25.1-25.1c12.4-11.8,22.5-11.9,34.7,0.1c21.9,21.4,43.4,43.2,65,64.8C213,330.8,216.6,334.1,221.6,338.9z"/>
</g>
</svg>
