<?xml version="1.0" encoding="utf-8"?>
<!-- Generator: Adobe Illustrator 22.1.0, SVG Export Plug-In . SVG Version: 6.00 Build 0)  -->
<svg version="1.1" id="Layer_1" xmlns="http://www.w3.org/2000/svg" xmlns:xlink="http://www.w3.org/1999/xlink" x="0px" y="0px"
	 viewBox="0 0 1204 1208" style="enable-background:new 0 0 1204 1208;" xml:space="preserve">
<style type="text/css">
	.st0{fill:#F8F8FC;}
	.st1{opacity:0.8;fill:#E9EEF8;enable-background:new    ;}
	.st2{opacity:0.5;fill:#F2F4FA;enable-background:new    ;}
	.st3{opacity:0.2;fill:#C8D3E3;enable-background:new    ;}
	.st4{opacity:0.1;fill:#F18200;}
	.st5{opacity:0.2;fill:#667ACD;}
</style>
<rect class="st0" width="1204" height="1208"/>
<path class="st1" d="M-289.9,952c-17.5-165.6,310.6-393.6,606.7-452.2c234.7-46.5,317.1,39.7,493.8-32.1
	C1130.5,337.6,1145.4-60.7,1255-53.4c156.9,10.4,460.9,848,84.6,1248.8C890.8,1673.5-258.9,1245.3-289.9,952z"/>
<path class="st2" d="M1031.5-47.3c-239.9,55.6-154,637.7-538.3,803.6c-203.7,87.9-402.5-0.3-510.4,147
	C-76.3,984-83,1101.2-46.9,1186.9c103.9,246.6,565.4,239.4,643.7,238.2c312.6-4.9,981.7-137.3,1064.7-611.6
	C1738.3,374.4,1268.2-102.2,1031.5-47.3z"/>
<path class="st3" d="M-164.9,672.4c41,88,148,283.8,342.5,338.6c346,97.4,657.7-338.5,688.7-382.9c136.4-196,105.6-295.1,223-485.8
	c150.5-244.4,449.7-512.2,653.5-462.9c373.8,90.3,684.5,1312.5,267.8,1946.5C1497,2407.3-27.2,2151.2-260.7,1424.3
	C-300.9,1299.1-334.4,1061.7-164.9,672.4z"/>
<path class="st4" d="M-260.3,425.8c179.5,163.4,584.9,50.1,795.1-153c84.4-81.6,82.4-124.6,186-210c222.1-183.1,447.6-163.6,447-195
	c-1.3-74.4-1268.1-329-1500.1,111C-408.5,123.3-366.1,329.5-260.3,425.8z"/>
<path class="st5" d="M-512.3,677.8c70.5-491.5,240-677.4,390-753.1c179-90.3,292.6-4.5,834.1-15c420.4-8.1,603.4-64.7,627.1-3
	c28.2,73.4-183.6,277.3-444,339c-364.2,86.3-515.9-178.4-792.1-84c-351.2,120.1-460.9,669.5-567.1,636.1
	C-496.4,787.7-508,730.6-512.3,677.8z"/>
</svg>
